<svg xmlns="http://www.w3.org/2000/svg" width="19" height="16" viewBox="0 0 19 16">
  <path fill="#939393" d="M357.297363,188.978027 C357.637695,188.978027 357.953125,188.820312 358.318359,188.455078 L365.540039,181.308105 C365.23291,181.009277 364.660156,180.868164 363.838379,180.868164 L350.474121,180.868164 C349.776855,180.868164 349.287109,181.000977 349.013184,181.274902 L356.276367,188.455078 C356.633301,188.812012 356.94873,188.978027 357.297363,188.978027 Z M348.324219,193.833984 L354.192871,188.031738 L348.307617,182.229492 C348.183105,182.461914 348.116699,182.860352 348.116699,183.433105 L348.116699,192.597168 C348.116699,193.186523 348.183105,193.601562 348.324219,193.833984 Z M366.245605,193.825684 C366.378418,193.584961 366.444824,193.178223 366.444824,192.597168 L366.444824,183.433105 C366.444824,182.876953 366.378418,182.478516 366.262207,182.254395 L360.393555,188.031738 L366.245605,193.825684 Z M350.723145,195.17041 C349.92627,195.17041 349.378418,195.037598 349.062988,194.763672 L355.03125,188.845215 L355.587402,189.401367 C356.151855,189.949219 356.691406,190.198242 357.297363,190.198242 C357.89502,190.198242 358.43457,189.949219 359.007324,189.401367 L359.555176,188.845215 L365.540039,194.771973 C365.266113,195.037598 364.784668,195.17041 364.087402,195.17041 L350.723145,195.17041 Z" transform="translate(-348 -180)"/>
</svg>
