<svg xmlns="http://www.w3.org/2000/svg" width="12" height="17" viewBox="0 0 12 17">
  <path fill="#939393" d="M382.09668,195.867676 L389.999023,195.867676 C391.069824,195.867676 391.592773,195.336426 391.592773,194.174316 L391.592773,188.081543 C391.592773,187.035645 391.161133,186.496094 390.272949,186.404785 L390.272949,184.312988 C390.272949,181.183594 388.222656,179.672852 386.047852,179.672852 C383.873047,179.672852 381.822754,181.183594 381.822754,184.312988 L381.822754,186.446289 C381.009277,186.570801 380.50293,187.102051 380.50293,188.081543 L380.50293,194.174316 C380.50293,195.336426 381.025879,195.867676 382.09668,195.867676 Z M383.15918,184.138672 C383.15918,182.055176 384.495605,180.951172 386.047852,180.951172 C387.600098,180.951172 388.936523,182.055176 388.936523,184.138672 L388.936523,186.396484 L383.15918,186.404785 L383.15918,184.138672 Z" transform="translate(-380 -179)"/>
</svg>
