<?xml version="1.0" encoding="UTF-8"?>
<svg width="17px" height="17px" viewBox="0 0 17 17" version="1.1" xmlns="http://www.w3.org/2000/svg" xmlns:xlink="http://www.w3.org/1999/xlink">
    <!-- Generator: Sketch 57.1 (83088) - https://sketch.com -->
    <title>search</title>
    <desc>Created with Sketch.</desc>
    <g id="Gelato" stroke="none" stroke-width="1" fill="none" fill-rule="evenodd">
        <g id="rental-platform" transform="translate(-288.000000, -44.000000)" fill="#939393" fill-rule="nonzero">
            <g id="Group-14" transform="translate(58.000000, 29.000000)">
                <g id="Group-5" transform="translate(218.000000, 6.000000)">
                    <g id="Group-3">
                        <g id="Group-2">
                            <path d="M19.4418945,22.9541016 C15.8476562,22.9541016 12.9091797,20.015625 12.9091797,16.4213867 C12.9091797,12.8271484 15.8476562,9.88867188 19.4418945,9.88867188 C23.027832,9.88867188 25.9746094,12.8271484 25.9746094,16.4213867 C25.9746094,17.815918 25.5263672,19.1108398 24.7792969,20.1650391 L28.3984375,23.7924805 C28.6308594,24.0249023 28.7387695,24.3320312 28.7387695,24.6474609 C28.7387695,25.328125 28.2324219,25.8676758 27.5351562,25.8676758 C27.2114258,25.8676758 26.8959961,25.7514648 26.6635742,25.519043 L23.027832,21.875 C21.9985352,22.5556641 20.7617188,22.9541016 19.4418945,22.9541016 Z M19.4418945,21.2109375 C22.0649414,21.2109375 24.2314453,19.0527344 24.2314453,16.4213867 C24.2314453,13.7983398 22.0649414,11.6318359 19.4418945,11.6318359 C16.8105469,11.6318359 14.6523438,13.7983398 14.6523438,16.4213867 C14.6523438,19.0527344 16.8105469,21.2109375 19.4418945,21.2109375 Z" id="search"></path>
                        </g>
                    </g>
                </g>
            </g>
        </g>
    </g>
</svg>