<?xml version="1.0" encoding="UTF-8"?>
<svg width="32px" height="32px" viewBox="0 0 32 32" version="1.1" xmlns="http://www.w3.org/2000/svg" xmlns:xlink="http://www.w3.org/1999/xlink">
    <!-- Generator: Sketch 57.1 (83088) - https://sketch.com -->
    <title>BrandIcon/bank</title>
    <desc>Created with Sketch.</desc>
    <g id="Sample-Express" stroke="none" stroke-width="1" fill="none" fill-rule="evenodd">
        <g id="rental-platform" transform="translate(-623.000000, -253.000000)" fill="#0055FF">
            <g id="BrandIcon/bank" transform="translate(623.000000, 253.000000)">
                <path d="M10,15 L10,28 L13,28 L13,15 L19,15 L19,28 L22,28 L22,15 L28,15 L28,28 L30.9996661,28 C31.5519508,28 31.9996661,28.4477153 31.9996661,29 L31.9996661,32 L0.000333943512,32 L0.000333943512,29 C0.000333943512,28.4477153 0.448049194,28 1.00033394,28 L4,28 L4,15 L10,15 Z M16,8.46966941e-12 C25.3620811,5.1437763 30.3619767,7.89975936 30.9996869,8.26794919 C31.9562522,8.82023394 32.2839957,10.0434148 31.7317225,11 C31.3547682,11.6529175 30.665267,12.0128766 29.9613188,12 L2.03868118,12 C1.33473301,12.0128766 0.645231752,11.6529175 0.268277543,11 C-0.283995679,10.0434148 0.0437477905,8.82023394 1.00031307,8.26794919 C1.63802326,7.89975936 6.6379189,5.1437763 16,8.46966941e-12 Z" id="bank"></path>
            </g>
        </g>
    </g>
</svg>