<?xml version="1.0" encoding="UTF-8"?>
<svg width="23px" height="16px" viewBox="0 0 23 16" version="1.1" xmlns="http://www.w3.org/2000/svg" xmlns:xlink="http://www.w3.org/1999/xlink">
    <!-- Generator: Sketch 57.1 (83088) - https://sketch.com -->
    <title>people</title>
    <desc>Created with Sketch.</desc>
    <g id="Gelato" stroke="none" stroke-width="1" fill="none" fill-rule="evenodd">
        <g id="rental-platform" transform="translate(-725.000000, -45.000000)" fill="#939393" fill-rule="nonzero">
            <g id="Group-14" transform="translate(58.000000, 29.000000)">
                <g id="Group-3-Copy-2" transform="translate(656.000000, 6.000000)">
                    <path d="M26.8300781,17.9321289 C25.012207,17.9321289 23.4848633,16.3217773 23.4765625,14.2548828 C23.4765625,12.2294922 25.0205078,10.644043 26.8300781,10.644043 C28.6313477,10.644043 30.175293,12.2045898 30.175293,14.2382812 C30.175293,16.3217773 28.6479492,17.9321289 26.8300781,17.9321289 Z M17.234375,18.1230469 C15.6489258,18.1230469 14.3124248,16.7119141 14.3124248,14.9189453 C14.3041992,13.1508789 15.6655273,11.7729492 17.234375,11.7729492 C18.8032227,11.7729492 20.1479492,13.1259766 20.1479492,14.9023438 C20.1479492,16.7119141 18.8115234,18.1230469 17.234375,18.1230469 Z M12.6606445,25.6601562 C11.5317383,25.6601562 11.1166992,25.1870117 11.1166992,24.3652344 C11.1166992,22.1157227 13.5239258,19.3847656 17.2260742,19.3847656 C18.7285156,19.3847656 19.9155273,19.8164062 20.8286133,20.4057617 C18.9526367,21.8833008 17.9897461,24.3901367 18.8779297,25.6601562 L12.6606445,25.6601562 Z M21.6503906,25.6518555 C20.2807617,25.6518555 19.8076172,25.2368164 19.8076172,24.4731445 C19.8076172,22.3398438 22.5219727,19.4013672 26.8217773,19.4013672 C31.1298828,19.4013672 33.8442383,22.3398438 33.8442383,24.4731445 C33.8442383,25.2368164 33.362793,25.6518555 32.0014648,25.6518555 L21.6503906,25.6518555 Z" id="people"></path>
                </g>
            </g>
        </g>
    </g>
</svg>