<?xml version="1.0" encoding="UTF-8"?>
<svg width="56px" height="44px" viewBox="0 0 56 44" version="1.1" xmlns="http://www.w3.org/2000/svg" xmlns:xlink="http://www.w3.org/1999/xlink">
    <!-- Generator: Sketch 57.1 (83088) - https://sketch.com -->
    <title>person</title>
    <desc>Created with Sketch.</desc>
    <g id="Gelato" stroke="none" stroke-width="1" fill="none" fill-rule="evenodd">
        <g id="rental-platform-interstitial" transform="translate(-612.000000, -224.000000)" fill="#0055FF" fill-rule="nonzero">
            <g id="Group-17" transform="translate(396.000000, 150.000000)">
                <path d="M223.359375,117.648438 C218.484375,117.648438 216,115.234375 216,110.382812 L216,81.765625 C216,76.9140625 218.484375,74.5 223.359375,74.5 L263.929688,74.5 C268.828125,74.5 271.289062,76.9375 271.289062,81.765625 L271.289062,110.382812 C271.289062,115.210938 268.828125,117.648438 263.929688,117.648438 L223.359375,117.648438 Z M223.429688,113.875 L228.046875,113.875 L228.046875,113.734375 C229.945312,108.882812 235.453125,104.40625 243.632812,104.40625 C251.882812,104.40625 257.367188,108.882812 259.3125,113.828125 L259.3125,113.875 L263.859375,113.875 C266.179688,113.875 267.515625,112.632812 267.515625,110.195312 L267.515625,81.953125 C267.515625,79.515625 266.179688,78.2734375 263.859375,78.2734375 L223.429688,78.2734375 C221.085938,78.2734375 219.773438,79.515625 219.773438,81.953125 L219.773438,110.195312 C219.773438,112.632812 221.085938,113.875 223.429688,113.875 Z M243.632812,100.726562 C239.4375,100.679688 236.109375,97.1640625 236.085938,92.4296875 C236.039062,88 239.4375,84.3671875 243.632812,84.3671875 C247.851562,84.3671875 251.203125,88 251.203125,92.4296875 C251.203125,97.1640625 247.851562,100.796875 243.632812,100.726562 Z" id="person"></path>
            </g>
        </g>
    </g>
</svg>