<?xml version="1.0" encoding="UTF-8"?>
<svg width="15px" height="14px" viewBox="0 0 15 14" version="1.1" xmlns="http://www.w3.org/2000/svg" xmlns:xlink="http://www.w3.org/1999/xlink">
    <!-- Generator: Sketch 57.1 (83088) - https://sketch.com -->
    <title>save</title>
    <desc>Created with Sketch.</desc>
    <g id="Gelato" stroke="none" stroke-width="1" fill="none" fill-rule="evenodd" opacity="0.5">
        <g id="rental-platform" transform="translate(-566.000000, -728.000000)" fill="#000000" fill-rule="nonzero">
            <g id="image-container" transform="translate(58.000000, 118.000000)">
                <g id="Group-16" transform="translate(508.223633, 609.000000)">
                    <path d="M6.91796875,14.6064453 C6.65136719,14.6064453 6.34375,14.4833984 6.05664062,14.2988281 C2.33789062,11.90625 0,9.03515625 0,6.19824219 C0,3.62109375 1.72265625,1.87109375 3.95800781,1.87109375 C5.16113281,1.87109375 6.1796875,2.390625 6.91796875,3.484375 C7.65625,2.390625 8.66796875,1.87109375 9.87109375,1.87109375 C12.1064453,1.87109375 13.8291016,3.62109375 13.8291016,6.19824219 C13.8291016,9.03515625 11.4980469,11.90625 7.77246094,14.2988281 C7.48535156,14.4833984 7.17773437,14.6064453 6.91796875,14.6064453 Z M6.91796875,13.1572266 C6.95214844,13.1572266 7.00683594,13.1367188 7.07519531,13.0888672 C10.2675781,10.9697266 12.4277344,8.46777344 12.4277344,6.19140625 C12.4277344,4.4140625 11.3134766,3.265625 9.80957031,3.265625 C8.63378906,3.265625 7.85449219,4.06542969 7.46484375,4.81054688 C7.32128906,5.08398438 7.1640625,5.22070312 6.91796875,5.22070312 C6.66503906,5.22070312 6.51464844,5.08398438 6.37109375,4.81054688 C5.97460938,4.06542969 5.1953125,3.265625 4.01953125,3.265625 C2.515625,3.265625 1.40136719,4.4140625 1.40136719,6.19140625 C1.40136719,8.46777344 3.56152344,10.9697266 6.75390625,13.0888672 C6.82910156,13.1367188 6.87695312,13.1572266 6.91796875,13.1572266 Z" id="save"></path>
                </g>
            </g>
        </g>
    </g>
</svg>