<?xml version="1.0" encoding="UTF-8"?>
<svg width="93px" height="15px" viewBox="0 0 93 15" version="1.1" xmlns="http://www.w3.org/2000/svg" xmlns:xlink="http://www.w3.org/1999/xlink">
    <!-- Generator: Sketch 57.1 (83088) - https://sketch.com -->
    <title>Group 10</title>
    <desc>Created with Sketch.</desc>
    <g id="Gelato" stroke="none" stroke-width="1" fill="none" fill-rule="evenodd">
        <g id="rental-platform" transform="translate(-862.000000, -317.000000)" fill-rule="nonzero">
            <g id="Group-10" transform="translate(862.000000, 317.000000)">
                <path d="M2.9518931,14.5810547 C2.63060404,14.3417969 2.56224466,13.9384766 2.74681497,13.3984375 L4.14818216,9.22851563 L0.566150912,6.65820313 C0.101307162,6.32324219 -0.0900990884,5.9609375 0.0397837241,5.57128906 C0.169666537,5.18847656 0.531971224,5.00390625 1.10618997,5.01074219 L5.50169779,5.03808594 L6.8347056,0.840820313 C7.01243997,0.293945313 7.29271341,2.84217094e-14 7.70286966,2.84217094e-14 C8.10618997,2.84217094e-14 8.38646341,0.293945313 8.56419779,0.840820313 L9.90404154,5.03808594 L14.2927134,5.01074219 C14.8669322,5.00390625 15.2292368,5.18847656 15.3591197,5.57128906 C15.4890025,5.9609375 15.2975962,6.32324219 14.8327525,6.65820313 L11.2507212,9.22851563 L12.6520884,13.3984375 C12.8366587,13.9384766 12.7682993,14.3417969 12.4470103,14.5810547 C12.1188853,14.8339844 11.715565,14.7519531 11.2507212,14.4169922 L7.70286966,11.8056641 L4.14818216,14.4169922 C3.68333841,14.7519531 3.2800181,14.8339844 2.9518931,14.5810547 Z" id="star" fill="#0055FF"></path>
                <path d="M22.3507965,14.5810547 C22.0295074,14.3417969 21.961148,13.9384766 22.1457184,13.3984375 L23.5470855,9.22851563 L19.9650543,6.65820313 C19.5002105,6.32324219 19.3088043,5.9609375 19.4386871,5.57128906 C19.5685699,5.18847656 19.9308746,5.00390625 20.5050934,5.01074219 L24.9006012,5.03808594 L26.233609,0.840820313 C26.4113434,0.293945313 26.6916168,2.84217094e-14 27.101773,2.84217094e-14 C27.5050934,2.84217094e-14 27.7853668,0.293945313 27.9631012,0.840820313 L29.3029449,5.03808594 L33.6916168,5.01074219 C34.2658355,5.00390625 34.6281402,5.18847656 34.758023,5.57128906 C34.8879059,5.9609375 34.6964996,6.32324219 34.2316559,6.65820313 L30.6496246,9.22851563 L32.0509918,13.3984375 C32.2355621,13.9384766 32.1672027,14.3417969 31.8459137,14.5810547 C31.5177887,14.8339844 31.1144684,14.7519531 30.6496246,14.4169922 L27.101773,11.8056641 L23.5470855,14.4169922 C23.0822418,14.7519531 22.6789215,14.8339844 22.3507965,14.5810547 Z" id="star" fill="#0055FF"></path>
                <path d="M41.7496999,14.5810547 C41.4284108,14.3417969 41.3600514,13.9384766 41.5446217,13.3984375 L42.9459889,9.22851563 L39.3639577,6.65820313 C38.8991139,6.32324219 38.7077077,5.9609375 38.8375905,5.57128906 C38.9674733,5.18847656 39.329778,5.00390625 39.9039967,5.01074219 L44.2995046,5.03808594 L45.6325124,0.840820313 C45.8102467,0.293945313 46.0905202,2.84217094e-14 46.5006764,2.84217094e-14 C46.9039967,2.84217094e-14 47.1842702,0.293945313 47.3620046,0.840820313 L48.7018483,5.03808594 L53.0905202,5.01074219 C53.6647389,5.00390625 54.0270436,5.18847656 54.1569264,5.57128906 C54.2868092,5.9609375 54.095403,6.32324219 53.6305592,6.65820313 L50.048528,9.22851563 L51.4498952,13.3984375 C51.6344655,13.9384766 51.5661061,14.3417969 51.2448171,14.5810547 C50.9166921,14.8339844 50.5133717,14.7519531 50.048528,14.4169922 L46.5006764,11.8056641 L42.9459889,14.4169922 C42.4811452,14.7519531 42.0778249,14.8339844 41.7496999,14.5810547 Z" id="star" fill="#0055FF"></path>
                <path d="M61.1486033,14.5810547 C60.8273142,14.3417969 60.7589548,13.9384766 60.9435251,13.3984375 L62.3448923,9.22851563 L58.7628611,6.65820313 C58.2980173,6.32324219 58.1066111,5.9609375 58.2364939,5.57128906 C58.3663767,5.18847656 58.7286814,5.00390625 59.3029001,5.01074219 L63.6984079,5.03808594 L65.0314158,0.840820313 C65.2091501,0.293945313 65.4894236,2.84217094e-14 65.8995798,2.84217094e-14 C66.3029001,2.84217094e-14 66.5831736,0.293945313 66.7609079,0.840820313 L68.1007517,5.03808594 L72.4894236,5.01074219 C73.0636423,5.00390625 73.425947,5.18847656 73.5558298,5.57128906 C73.6857126,5.9609375 73.4943064,6.32324219 73.0294626,6.65820313 L69.4474314,9.22851563 L70.8487986,13.3984375 C71.0333689,13.9384766 70.9650095,14.3417969 70.6437204,14.5810547 C70.3155954,14.8339844 69.9122751,14.7519531 69.4474314,14.4169922 L65.8995798,11.8056641 L62.3448923,14.4169922 C61.8800486,14.7519531 61.4767283,14.8339844 61.1486033,14.5810547 Z" id="star" fill="#0055FF"></path>
                <path d="M80.5475066,14.5810547 C80.2262176,14.3417969 80.1578582,13.9384766 80.3424285,13.3984375 L81.7437957,9.22851563 L78.1617645,6.65820313 C77.6969207,6.32324219 77.5055145,5.9609375 77.6353973,5.57128906 C77.7652801,5.18847656 78.1275848,5.00390625 78.7018035,5.01074219 L83.0973113,5.03808594 L84.4303191,0.840820313 C84.6080535,0.293945313 84.888327,2.84217094e-14 85.2984832,2.84217094e-14 C85.7018035,2.84217094e-14 85.982077,0.293945313 86.1598113,0.840820313 L87.4996551,5.03808594 L91.888327,5.01074219 C92.4625457,5.00390625 92.8248504,5.18847656 92.9547332,5.57128906 C93.084616,5.9609375 92.8932098,6.32324219 92.428366,6.65820313 L88.8463348,9.22851563 L90.247702,13.3984375 C90.4322723,13.9384766 90.3639129,14.3417969 90.0426238,14.5810547 C89.7144988,14.8339844 89.3111785,14.7519531 88.8463348,14.4169922 L85.2984832,11.8056641 L81.7437957,14.4169922 C81.278952,14.7519531 80.8756316,14.8339844 80.5475066,14.5810547 Z" id="star" fill="#000000" opacity="0.200000003"></path>
            </g>
        </g>
    </g>
</svg>