<?xml version="1.0" encoding="UTF-8"?>
<svg width="18px" height="16px" viewBox="0 0 18 16" version="1.1" xmlns="http://www.w3.org/2000/svg" xmlns:xlink="http://www.w3.org/1999/xlink">
    <!-- Generator: Sketch 57.1 (83088) - https://sketch.com -->
    <title>cal</title>
    <desc>Created with Sketch.</desc>
    <g id="Gelato" stroke="none" stroke-width="1" fill="none" fill-rule="evenodd">
        <g id="rental-platform" transform="translate(-556.000000, -45.000000)" fill="#939393" fill-rule="nonzero">
            <g id="Group-14" transform="translate(58.000000, 29.000000)">
                <g id="Group-3-Copy" transform="translate(485.000000, 6.000000)">
                    <g id="Group-2">
                        <path d="M15.855957,25.7763672 C14.0546875,25.7763672 13.1166992,24.8466797 13.1166992,23.0703125 L13.1166992,12.9682617 C13.1166992,11.1835938 14.0546875,10.262207 15.855957,10.262207 L27.2861328,10.262207 C29.0874023,10.262207 30.0170898,11.1918945 30.0170898,12.9682617 L30.0170898,23.0703125 C30.0170898,24.8466797 29.0874023,25.7763672 27.2861328,25.7763672 L15.855957,25.7763672 Z M15.8476562,24.1245117 L27.2861328,24.1245117 C27.9750977,24.1245117 28.3652344,23.7675781 28.3652344,23.0371094 L28.3652344,15.4003906 C28.3652344,14.6699219 27.9750977,14.3129883 27.2861328,14.3129883 L15.8476562,14.3129883 C15.1503906,14.3129883 14.7768555,14.6699219 14.7768555,15.4003906 L14.7768555,23.0371094 C14.7768555,23.7675781 15.1503906,24.1245117 15.8476562,24.1245117 Z M19.9731445,17.1767578 C19.6743164,17.1767578 19.574707,17.0854492 19.574707,16.7949219 L19.574707,16.3051758 C19.574707,16.0063477 19.6743164,15.9150391 19.9731445,15.9150391 L20.4545898,15.9150391 C20.753418,15.9150391 20.8530273,16.0063477 20.8530273,16.3051758 L20.8530273,16.7949219 C20.8530273,17.0854492 20.753418,17.1767578 20.4545898,17.1767578 L19.9731445,17.1767578 Z M22.6791992,17.1767578 C22.3803711,17.1767578 22.2807617,17.0854492 22.2807617,16.7949219 L22.2807617,16.3051758 C22.2807617,16.0063477 22.3803711,15.9150391 22.6791992,15.9150391 L23.1689453,15.9150391 C23.4677734,15.9150391 23.5673828,16.0063477 23.5673828,16.3051758 L23.5673828,16.7949219 C23.5673828,17.0854492 23.4677734,17.1767578 23.1689453,17.1767578 L22.6791992,17.1767578 Z M25.3935547,17.1767578 C25.0947266,17.1767578 24.9951172,17.0854492 24.9951172,16.7949219 L24.9951172,16.3051758 C24.9951172,16.0063477 25.0947266,15.9150391 25.3935547,15.9150391 L25.875,15.9150391 C26.1738281,15.9150391 26.2734375,16.0063477 26.2734375,16.3051758 L26.2734375,16.7949219 C26.2734375,17.0854492 26.1738281,17.1767578 25.875,17.1767578 L25.3935547,17.1767578 Z M17.2587891,19.8496094 C16.9599609,19.8496094 16.8603516,19.7583008 16.8603516,19.4594727 L16.8603516,18.9697266 C16.8603516,18.6791992 16.9599609,18.5878906 17.2587891,18.5878906 L17.7485352,18.5878906 C18.0390625,18.5878906 18.1386719,18.6791992 18.1386719,18.9697266 L18.1386719,19.4594727 C18.1386719,19.7583008 18.0390625,19.8496094 17.7485352,19.8496094 L17.2587891,19.8496094 Z M19.9731445,19.8496094 C19.6743164,19.8496094 19.574707,19.7583008 19.574707,19.4594727 L19.574707,18.9697266 C19.574707,18.6791992 19.6743164,18.5878906 19.9731445,18.5878906 L20.4545898,18.5878906 C20.753418,18.5878906 20.8530273,18.6791992 20.8530273,18.9697266 L20.8530273,19.4594727 C20.8530273,19.7583008 20.753418,19.8496094 20.4545898,19.8496094 L19.9731445,19.8496094 Z M22.6791992,19.8496094 C22.3803711,19.8496094 22.2807617,19.7583008 22.2807617,19.4594727 L22.2807617,18.9697266 C22.2807617,18.6791992 22.3803711,18.5878906 22.6791992,18.5878906 L23.1689453,18.5878906 C23.4677734,18.5878906 23.5673828,18.6791992 23.5673828,18.9697266 L23.5673828,19.4594727 C23.5673828,19.7583008 23.4677734,19.8496094 23.1689453,19.8496094 L22.6791992,19.8496094 Z M25.3935547,19.8496094 C25.0947266,19.8496094 24.9951172,19.7583008 24.9951172,19.4594727 L24.9951172,18.9697266 C24.9951172,18.6791992 25.0947266,18.5878906 25.3935547,18.5878906 L25.875,18.5878906 C26.1738281,18.5878906 26.2734375,18.6791992 26.2734375,18.9697266 L26.2734375,19.4594727 C26.2734375,19.7583008 26.1738281,19.8496094 25.875,19.8496094 L25.3935547,19.8496094 Z M17.2587891,22.5141602 C16.9599609,22.5141602 16.8603516,22.4228516 16.8603516,22.1323242 L16.8603516,21.6425781 C16.8603516,21.34375 16.9599609,21.2524414 17.2587891,21.2524414 L17.7485352,21.2524414 C18.0390625,21.2524414 18.1386719,21.34375 18.1386719,21.6425781 L18.1386719,22.1323242 C18.1386719,22.4228516 18.0390625,22.5141602 17.7485352,22.5141602 L17.2587891,22.5141602 Z M19.9731445,22.5141602 C19.6743164,22.5141602 19.574707,22.4228516 19.574707,22.1323242 L19.574707,21.6425781 C19.574707,21.34375 19.6743164,21.2524414 19.9731445,21.2524414 L20.4545898,21.2524414 C20.753418,21.2524414 20.8530273,21.34375 20.8530273,21.6425781 L20.8530273,22.1323242 C20.8530273,22.4228516 20.753418,22.5141602 20.4545898,22.5141602 L19.9731445,22.5141602 Z M22.6791992,22.5141602 C22.3803711,22.5141602 22.2807617,22.4228516 22.2807617,22.1323242 L22.2807617,21.6425781 C22.2807617,21.34375 22.3803711,21.2524414 22.6791992,21.2524414 L23.1689453,21.2524414 C23.4677734,21.2524414 23.5673828,21.34375 23.5673828,21.6425781 L23.5673828,22.1323242 C23.5673828,22.4228516 23.4677734,22.5141602 23.1689453,22.5141602 L22.6791992,22.5141602 Z" id="cal"></path>
                    </g>
                </g>
            </g>
        </g>
    </g>
</svg>