<?xml version="1.0" encoding="UTF-8"?>
<svg width="72px" height="71px" viewBox="0 0 72 71" version="1.1" xmlns="http://www.w3.org/2000/svg" xmlns:xlink="http://www.w3.org/1999/xlink">
    <!-- Generator: Sketch 57.1 (83088) - https://sketch.com -->
    <title>confirmed</title>
    <desc>Created with Sketch.</desc>
    <g id="Gelato" stroke="none" stroke-width="1" fill="none" fill-rule="evenodd">
        <g id="rental-platform-interstitial-copy" transform="translate(-605.000000, -329.000000)" fill="#33C27F" fill-rule="nonzero">
            <g id="Group-17" transform="translate(397.000000, 271.000000)">
                <path d="M243.864,128.914062 C224.528063,128.914062 208.602281,112.953125 208.602281,93.6523438 C208.602281,74.3515625 224.528063,58.390625 243.828844,58.390625 C263.129625,58.390625 279.125719,74.3515625 279.125719,93.6523438 C279.125719,112.953125 263.164781,128.914062 243.864,128.914062 Z M243.864,124.378906 C260.844469,124.378906 274.590563,110.667969 274.555541,93.6523438 C274.555541,76.6367188 260.844469,62.9609375 243.828844,62.9609375 C226.813219,62.9609375 213.172594,76.6367188 213.172594,93.6523438 C213.172594,110.667969 226.848375,124.378906 243.864,124.378906 Z M239.328844,111.195312 C238.449938,111.195312 237.746813,110.84375 237.008531,109.929688 L226.461656,97.2734375 C226.074938,96.7460938 225.828844,96.1484375 225.828844,95.515625 C225.828844,94.25 226.813219,93.3007812 227.973375,93.3007812 C228.746813,93.3007812 229.414781,93.6171875 230.012438,94.390625 L239.223375,105.746094 L256.203844,78.8867188 C256.731187,78.0429688 257.434312,77.6210938 258.172594,77.6210938 C259.297594,77.6210938 260.422594,78.4296875 260.422594,79.6953125 C260.422594,80.2929688 260.106187,80.890625 259.789781,81.4179688 L241.543688,109.929688 C240.981188,110.773438 240.20775,111.195312 239.328844,111.195312 Z" id="confirmed"></path>
            </g>
        </g>
    </g>
</svg>