<?xml version="1.0" encoding="UTF-8"?>
<svg width="14px" height="17px" viewBox="0 0 14 17" version="1.1" xmlns="http://www.w3.org/2000/svg" xmlns:xlink="http://www.w3.org/1999/xlink">
    <!-- Generator: Sketch 57.1 (83088) - https://sketch.com -->
    <title>share</title>
    <desc>Created with Sketch.</desc>
    <g id="Gelato" stroke="none" stroke-width="1" fill="none" fill-rule="evenodd" opacity="0.5">
        <g id="rental-platform" transform="translate(-490.000000, -725.000000)" fill="#000000" fill-rule="nonzero">
            <g id="image-container" transform="translate(58.000000, 118.000000)">
                <g id="Group-15" transform="translate(432.743164, 607.870117)">
                    <path d="M6.20019531,10.1650391 C5.84472656,10.1650391 5.55761719,9.87792969 5.55761719,9.53613281 L5.55761719,2.69335938 L5.61230469,1.67480469 L5.18847656,2.18066406 L4.23144531,3.19921875 C4.12207031,3.32226563 3.95800781,3.38378906 3.80078125,3.38378906 C3.48632812,3.38378906 3.23339844,3.15820312 3.23339844,2.83691406 C3.23339844,2.66601562 3.30175781,2.54296875 3.41796875,2.42675781 L5.70800781,0.21875 C5.87890625,0.0546875 6.02929688,0 6.20019531,0 C6.36425781,0 6.52148438,0.0546875 6.68554688,0.21875 L8.97558594,2.42675781 C9.09179688,2.54296875 9.16015625,2.66601562 9.16015625,2.83691406 C9.16015625,3.15820312 8.90039062,3.38378906 8.5859375,3.38378906 C8.42871094,3.38378906 8.27148438,3.32226563 8.16210938,3.19921875 L7.20507812,2.18066406 L6.78808594,1.68164062 L6.8359375,2.69335938 L6.8359375,9.53613281 C6.8359375,9.87792969 6.54882812,10.1650391 6.20019531,10.1650391 Z M2.25585938,15.5927734 C0.772460938,15.5927734 0,14.8271484 0,13.3642578 L0,6.7265625 C0,5.25683594 0.772460938,4.49804688 2.25585938,4.49804688 L4.11523438,4.49804688 L4.11523438,5.85839844 L2.33789062,5.85839844 C1.70898438,5.85839844 1.3671875,6.18652344 1.3671875,6.84277344 L1.3671875,13.2412109 C1.3671875,13.9042969 1.70898438,14.2324219 2.33789062,14.2324219 L10.0351562,14.2324219 C10.6640625,14.2324219 11.0126953,13.9042969 11.0126953,13.2412109 L11.0126953,6.84277344 C11.0126953,6.18652344 10.6640625,5.85839844 10.0351562,5.85839844 L8.27832031,5.85839844 L8.27832031,4.49804688 L10.1240234,4.49804688 C11.6074219,4.49804688 12.3730469,5.26367188 12.3730469,6.7265625 L12.3730469,13.3642578 C12.3730469,14.8271484 11.6074219,15.5927734 10.1240234,15.5927734 L2.25585938,15.5927734 Z" id="share"></path>
                </g>
            </g>
        </g>
    </g>
</svg>